{
    "asset" : {
        "generator" : "Khronos glTF Blender I/O v1.2.75",
        "version" : "2.0"
    },
    "scene" : 1,
    "scenes" : [
        {
            "name" : "Chair"
        },
        {
            "name" : "Scene",
            "nodes" : [
                0,
                1,
                2,
                3,
                4
            ]
        }
    ],
    "nodes" : [
        {
            "mesh" : 0,
            "name" : "Truck",
            "translation" : [
                0,
                -1.1537237167358398,
                0.5761232376098633
            ]
        },
        {
            "mesh" : 1,
            "name" : "Wheel4"
        },
        {
            "mesh" : 2,
            "name" : "Wheel2"
        },
        {
            "mesh" : 3,
            "name" : "Wheel1"
        },
        {
            "mesh" : 4,
            "name" : "Wheel3"
        }
    ],
    "materials" : [
        {
            "doubleSided" : true,
            "emissiveFactor" : [
                0,
                0,
                0
            ],
            "name" : "Car_mat",
            "pbrMetallicRoughness" : {
                "baseColorTexture" : {
                    "index" : 0,
                    "texCoord" : 0
                },
                "metallicRoughnessTexture" : {
                    "index" : 1,
                    "texCoord" : 0
                }
            }
        },
        {
            "doubleSided" : true,
            "emissiveFactor" : [
                0,
                0,
                0
            ],
            "name" : "Car_glass",
            "pbrMetallicRoughness" : {
                "baseColorFactor" : [
                    0.24947118759155273,
                    0.24947118759155273,
                    0.24947118759155273,
                    1
                ],
                "metallicFactor" : 0,
                "roughnessFactor" : 0.5
            }
        }
    ],
    "meshes" : [
        {
            "name" : "Cube.002",
            "primitives" : [
                {
                    "attributes" : {
                        "POSITION" : 0,
                        "NORMAL" : 1,
                        "TEXCOORD_0" : 2
                    },
                    "indices" : 3,
                    "material" : 0
                },
                {
                    "attributes" : {
                        "POSITION" : 4,
                        "NORMAL" : 5,
                        "TEXCOORD_0" : 6
                    },
                    "indices" : 7,
                    "material" : 1
                }
            ]
        },
        {
            "name" : "Cube.005",
            "primitives" : [
                {
                    "attributes" : {
                        "POSITION" : 8,
                        "NORMAL" : 9,
                        "TEXCOORD_0" : 10
                    },
                    "indices" : 11,
                    "material" : 0
                }
            ]
        },
        {
            "name" : "Cube.007",
            "primitives" : [
                {
                    "attributes" : {
                        "POSITION" : 12,
                        "NORMAL" : 13,
                        "TEXCOORD_0" : 14
                    },
                    "indices" : 15,
                    "material" : 0
                }
            ]
        },
        {
            "name" : "Cube.008",
            "primitives" : [
                {
                    "attributes" : {
                        "POSITION" : 16,
                        "NORMAL" : 17,
                        "TEXCOORD_0" : 18
                    },
                    "indices" : 19,
                    "material" : 0
                }
            ]
        },
        {
            "name" : "Cube.009",
            "primitives" : [
                {
                    "attributes" : {
                        "POSITION" : 20,
                        "NORMAL" : 21,
                        "TEXCOORD_0" : 22
                    },
                    "indices" : 23,
                    "material" : 0
                }
            ]
        }
    ],
    "textures" : [
        {
            "source" : 0
        },
        {
            "source" : 1
        }
    ],
    "images" : [
        {
            "mimeType" : "image/png",
            "name" : "car_albedo",
            "uri" : "car_albedo.png"
        },
        {
            "mimeType" : "image/png",
            "name" : "car_metallic_mask-car_roughness",
            "uri" : "car_metallic_mask-car_roughness.png"
        }
    ],
    "accessors" : [
        {
            "bufferView" : 0,
            "componentType" : 5126,
            "count" : 1985,
            "max" : [
                2.9883244037628174,
                3.7422311305999756,
                3.8418610095977783
            ],
            "min" : [
                -2.9883248805999756,
                -0.4934030771255493,
                -6.202640533447266
            ],
            "type" : "VEC3"
        },
        {
            "bufferView" : 1,
            "componentType" : 5126,
            "count" : 1985,
            "type" : "VEC3"
        },
        {
            "bufferView" : 2,
            "componentType" : 5126,
            "count" : 1985,
            "type" : "VEC2"
        },
        {
            "bufferView" : 3,
            "componentType" : 5123,
            "count" : 4158,
            "type" : "SCALAR"
        },
        {
            "bufferView" : 4,
            "componentType" : 5126,
            "count" : 16,
            "max" : [
                2.3075714111328125,
                3.617455244064331,
                1.758321762084961
            ],
            "min" : [
                -2.3075718879699707,
                1.6313724517822266,
                -1.3263614177703857
            ],
            "type" : "VEC3"
        },
        {
            "bufferView" : 5,
            "componentType" : 5126,
            "count" : 16,
            "type" : "VEC3"
        },
        {
            "bufferView" : 6,
            "componentType" : 5126,
            "count" : 16,
            "type" : "VEC2"
        },
        {
            "bufferView" : 7,
            "componentType" : 5123,
            "count" : 30,
            "type" : "SCALAR"
        },
        {
            "bufferView" : 8,
            "componentType" : 5126,
            "count" : 392,
            "max" : [
                -2.225017786026001,
                -0.7565481066703796,
                -2.871877431869507
            ],
            "min" : [
                -2.615628242492676,
                -2.2588961124420166,
                -4.374225616455078
            ],
            "type" : "VEC3"
        },
        {
            "bufferView" : 9,
            "componentType" : 5126,
            "count" : 392,
            "type" : "VEC3"
        },
        {
            "bufferView" : 10,
            "componentType" : 5126,
            "count" : 392,
            "type" : "VEC2"
        },
        {
            "bufferView" : 11,
            "componentType" : 5123,
            "count" : 756,
            "type" : "SCALAR"
        },
        {
            "bufferView" : 12,
            "componentType" : 5126,
            "count" : 360,
            "max" : [
                -2.088439702987671,
                -0.6993328928947449,
                4.108376979827881
            ],
            "min" : [
                -2.462419271469116,
                -2.1377158164978027,
                2.6699941158294678
            ],
            "type" : "VEC3"
        },
        {
            "bufferView" : 13,
            "componentType" : 5126,
            "count" : 360,
            "type" : "VEC3"
        },
        {
            "bufferView" : 14,
            "componentType" : 5126,
            "count" : 360,
            "type" : "VEC2"
        },
        {
            "bufferView" : 15,
            "componentType" : 5123,
            "count" : 756,
            "type" : "SCALAR"
        },
        {
            "bufferView" : 16,
            "componentType" : 5126,
            "count" : 360,
            "max" : [
                2.462419271469116,
                -0.6993328928947449,
                4.108376979827881
            ],
            "min" : [
                2.088439702987671,
                -2.1377158164978027,
                2.6699941158294678
            ],
            "type" : "VEC3"
        },
        {
            "bufferView" : 17,
            "componentType" : 5126,
            "count" : 360,
            "type" : "VEC3"
        },
        {
            "bufferView" : 18,
            "componentType" : 5126,
            "count" : 360,
            "type" : "VEC2"
        },
        {
            "bufferView" : 19,
            "componentType" : 5123,
            "count" : 756,
            "type" : "SCALAR"
        },
        {
            "bufferView" : 20,
            "componentType" : 5126,
            "count" : 392,
            "max" : [
                2.615628242492676,
                -0.7565481066703796,
                -2.871877431869507
            ],
            "min" : [
                2.225017786026001,
                -2.2588961124420166,
                -4.374225616455078
            ],
            "type" : "VEC3"
        },
        {
            "bufferView" : 21,
            "componentType" : 5126,
            "count" : 392,
            "type" : "VEC3"
        },
        {
            "bufferView" : 22,
            "componentType" : 5126,
            "count" : 392,
            "type" : "VEC2"
        },
        {
            "bufferView" : 23,
            "componentType" : 5123,
            "count" : 756,
            "type" : "SCALAR"
        }
    ],
    "bufferViews" : [
        {
            "buffer" : 0,
            "byteLength" : 23820,
            "byteOffset" : 0
        },
        {
            "buffer" : 0,
            "byteLength" : 23820,
            "byteOffset" : 23820
        },
        {
            "buffer" : 0,
            "byteLength" : 15880,
            "byteOffset" : 47640
        },
        {
            "buffer" : 0,
            "byteLength" : 8316,
            "byteOffset" : 63520
        },
        {
            "buffer" : 0,
            "byteLength" : 192,
            "byteOffset" : 71836
        },
        {
            "buffer" : 0,
            "byteLength" : 192,
            "byteOffset" : 72028
        },
        {
            "buffer" : 0,
            "byteLength" : 128,
            "byteOffset" : 72220
        },
        {
            "buffer" : 0,
            "byteLength" : 60,
            "byteOffset" : 72348
        },
        {
            "buffer" : 0,
            "byteLength" : 4704,
            "byteOffset" : 72408
        },
        {
            "buffer" : 0,
            "byteLength" : 4704,
            "byteOffset" : 77112
        },
        {
            "buffer" : 0,
            "byteLength" : 3136,
            "byteOffset" : 81816
        },
        {
            "buffer" : 0,
            "byteLength" : 1512,
            "byteOffset" : 84952
        },
        {
            "buffer" : 0,
            "byteLength" : 4320,
            "byteOffset" : 86464
        },
        {
            "buffer" : 0,
            "byteLength" : 4320,
            "byteOffset" : 90784
        },
        {
            "buffer" : 0,
            "byteLength" : 2880,
            "byteOffset" : 95104
        },
        {
            "buffer" : 0,
            "byteLength" : 1512,
            "byteOffset" : 97984
        },
        {
            "buffer" : 0,
            "byteLength" : 4320,
            "byteOffset" : 99496
        },
        {
            "buffer" : 0,
            "byteLength" : 4320,
            "byteOffset" : 103816
        },
        {
            "buffer" : 0,
            "byteLength" : 2880,
            "byteOffset" : 108136
        },
        {
            "buffer" : 0,
            "byteLength" : 1512,
            "byteOffset" : 111016
        },
        {
            "buffer" : 0,
            "byteLength" : 4704,
            "byteOffset" : 112528
        },
        {
            "buffer" : 0,
            "byteLength" : 4704,
            "byteOffset" : 117232
        },
        {
            "buffer" : 0,
            "byteLength" : 3136,
            "byteOffset" : 121936
        },
        {
            "buffer" : 0,
            "byteLength" : 1512,
            "byteOffset" : 125072
        }
    ],
    "buffers" : [
        {
            "byteLength" : 126584,
            "uri" : "RaceTruck.bin"
        }
    ]
}
